<svg xmlns="http://www.w3.org/2000/svg" width="31" height="31" viewBox="0 0 31 31">
  <g id="Group_12182" data-name="Group 12182" transform="translate(-132 -335)">
    <g id="Ellipse_543" data-name="Ellipse 543" transform="translate(132 335)" fill="#fff" stroke="#47CACC" stroke-width="1">
      <circle cx="15.5" cy="15.5" r="15.5" stroke="none"/>
      <circle cx="15.5" cy="15.5" r="15" fill="none"/>
    </g>
    <path id="female" d="M19.642,7.441c2.843,0,4.229,1.671,4.864,3.843.707,2.418.739,2.657,1.4,5.238.293,1.142-.366,1.709-2.207,2.035l-1.468.259a.85.85,0,0,0,.646.9c3.13.74,5.978,2.631,5.978,6.037v.728c0,.79-.1,1.234-1.232,1.234H11.66c-1.131,0-1.232-.444-1.232-1.234v-.728c0-3.405,2.848-5.3,5.98-6.037a.85.85,0,0,0,.645-.9l-1.468-.259c-1.841-.326-2.5-.893-2.207-2.035.663-2.581.693-2.82,1.4-5.238.635-2.172,2.021-3.843,4.864-3.843Z" transform="translate(127.572 332.559)" fill="#47CACC"/>
  </g>
</svg>
