<svg xmlns="http://www.w3.org/2000/svg" width="20.051" height="20.051" viewBox="0 0 20.051 20.051">
  <path id="Icon_ionic-ios-checkmark-circle" data-name="Icon ionic-ios-checkmark-circle" d="M13.4,3.375A10.025,10.025,0,1,0,23.426,13.4,10.024,10.024,0,0,0,13.4,3.375Zm5.133,7.254L12.089,17.1h0a.87.87,0,0,1-.559.265.844.844,0,0,1-.564-.275l-2.7-2.7a.192.192,0,0,1,0-.275l.858-.858a.186.186,0,0,1,.27,0l2.14,2.14,5.88-5.924a.19.19,0,0,1,.135-.058h0a.175.175,0,0,1,.135.058l.843.872A.19.19,0,0,1,18.534,10.629Z" transform="translate(-3.375 -3.375)" fill="#31ccb0"/>
</svg>
