<svg xmlns="http://www.w3.org/2000/svg" width="23.87" height="23.964" viewBox="0 0 23.87 23.964">
  <g id="dinner" transform="translate(-1)">
    <g id="Group_12312" data-name="Group 12312" transform="translate(1)">
      <g id="Group_12311" data-name="Group 12311">
        <path id="Path_21648" data-name="Path 21648" d="M7.319,0a.7.7,0,0,0-.7.7V5.71h-1.4V.7a.7.7,0,0,0-1.4,0V5.71H2.4V.7A.7.7,0,0,0,1,.7V7.816A2.1,2.1,0,0,0,2.4,9.793V21.857a2.106,2.106,0,0,0,4.212,0V9.793a2.1,2.1,0,0,0,1.4-1.977V.7A.7.7,0,0,0,7.319,0Z" transform="translate(-1)" fill="#3aa941"/>
      </g>
    </g>
    <g id="Group_12314" data-name="Group 12314" transform="translate(19.254 0.001)">
      <g id="Group_12313" data-name="Group 12313">
        <path id="Path_21649" data-name="Path 21649" d="M396.174.064a.706.706,0,0,0-.769.169A16.208,16.208,0,0,0,391,11.37v3.481a.7.7,0,0,0,.7.7h.7v6.319a2.106,2.106,0,1,0,4.212,0V.716A.7.7,0,0,0,396.174.064Z" transform="translate(-391 -0.015)" fill="#3aa941"/>
      </g>
    </g>
    <g id="Group_12316" data-name="Group 12316" transform="translate(9.213 2.956)">
      <g id="Group_12315" data-name="Group 12315">
        <path id="Path_21650" data-name="Path 21650" d="M180.2,63.157a9.021,9.021,0,0,0-3.51.707v4.153a3.43,3.43,0,0,1-.211,1.124,4.831,4.831,0,0,1,3.722-1.772,4.912,4.912,0,0,1,4.914,4.86v-.673a17.428,17.428,0,0,1,1.108-6.094A9.025,9.025,0,0,0,180.2,63.157Z" transform="translate(-176.483 -63.157)" fill="#3aa941"/>
      </g>
    </g>
    <g id="Group_12318" data-name="Group 12318" transform="translate(9.371 8.464)">
      <g id="Group_12317" data-name="Group 12317">
        <path id="Path_21651" data-name="Path 21651" d="M183.407,180.843a3.564,3.564,0,1,0,3.564,3.564A3.568,3.568,0,0,0,183.407,180.843Z" transform="translate(-179.843 -180.843)" fill="#3aa941"/>
      </g>
    </g>
    <g id="Group_12320" data-name="Group 12320" transform="translate(8.021 12.029)">
      <g id="Group_12319" data-name="Group 12319">
        <path id="Path_21652" data-name="Path 21652" d="M160.829,259.808V257A4.915,4.915,0,0,1,151,257v7.615a9.029,9.029,0,0,0,11.233-1.118v-1.7A2.11,2.11,0,0,1,160.829,259.808Z" transform="translate(-151 -257)" fill="#3aa941"/>
      </g>
    </g>
  </g>
</svg>
