<svg xmlns="http://www.w3.org/2000/svg" width="24.305" height="16.203" viewBox="0 0 24.305 16.203">
  <path id="Icon_awesome-eye" data-name="Icon awesome-eye" d="M24.158,11.986A13.534,13.534,0,0,0,12.152,4.5,13.536,13.536,0,0,0,.147,11.986a1.365,1.365,0,0,0,0,1.232A13.534,13.534,0,0,0,12.152,20.7a13.536,13.536,0,0,0,12.006-7.486A1.365,1.365,0,0,0,24.158,11.986ZM12.152,18.678A6.076,6.076,0,1,1,18.229,12.6,6.076,6.076,0,0,1,12.152,18.678Zm0-10.127a4.022,4.022,0,0,0-1.068.16,2.019,2.019,0,0,1-2.823,2.823,4.041,4.041,0,1,0,3.891-2.983Z" transform="translate(0 -4.5)" fill="#a2a2a2"/>
</svg>
