<svg xmlns="http://www.w3.org/2000/svg" width="18.427" height="20.272" viewBox="0 0 18.427 20.272">
  <path id="female" d="M19.642,7.441c2.843,0,4.229,1.671,4.864,3.843.707,2.418.739,2.657,1.4,5.238.293,1.142-.366,1.709-2.207,2.035l-1.468.259a.85.85,0,0,0,.646.9c3.13.74,5.978,2.631,5.978,6.037v.728c0,.79-.1,1.234-1.232,1.234H11.66c-1.131,0-1.232-.444-1.232-1.234v-.728c0-3.405,2.848-5.3,5.98-6.037a.85.85,0,0,0,.645-.9l-1.468-.259c-1.841-.326-2.5-.893-2.207-2.035.663-2.581.693-2.82,1.4-5.238.635-2.172,2.021-3.843,4.864-3.843Z" transform="translate(-10.428 -7.441)" fill="#707070"/>
</svg>
