<svg xmlns="http://www.w3.org/2000/svg" width="19.584" height="13.923" viewBox="0 0 19.584 13.923">
  <g id="gift-card_1_" data-name="gift-card (1)" transform="translate(0 -74)">
    <g id="Group_10984" data-name="Group 10984" transform="translate(0 74)">
      <g id="Group_10983" data-name="Group 10983">
        <path id="Path_19546" data-name="Path 19546" d="M17.671,74H1.912A1.915,1.915,0,0,0,0,75.912v10.1a1.915,1.915,0,0,0,1.912,1.912H7.841a.382.382,0,1,0,0-.765H1.912A1.149,1.149,0,0,1,.765,86.01V81.344H9.078a1.161,1.161,0,0,0,.52.758,1.175,1.175,0,0,0,.282.13L9.207,83.39a.382.382,0,0,0,.43.562l.916-.246.245.916a.383.383,0,0,0,.7.092l1.744-3.02,2.185,3.884a.382.382,0,0,0,.7-.089l.245-.916.916.246a.383.383,0,0,0,.432-.558L16.6,82.279c.036,0,.071.005.107.005a1.17,1.17,0,0,0,1.145-.94h.969V86.01a1.149,1.149,0,0,1-1.147,1.147H13.846V85.092a.382.382,0,1,0-.765,0v2.065H11.094a.382.382,0,1,0,0,.765h6.578a1.915,1.915,0,0,0,1.912-1.912v-10.1A1.915,1.915,0,0,0,17.671,74Zm-7.663,7.456a.4.4,0,0,1-.187-.34v-2.68h0a.4.4,0,0,1,.575-.364l1.877.885a1.162,1.162,0,0,0-.072.4v.818a1.161,1.161,0,0,0,.076.415L10.4,81.48A.4.4,0,0,1,10.008,81.456Zm1.29,2.076-.105-.393a.382.382,0,0,0-.469-.271l-.389.1.495-.851,1.763-.832Zm-.576-6.152a1.168,1.168,0,0,0-1.666,1.056v2.144H.765V75.912a1.149,1.149,0,0,1,1.147-1.147H13.081v3.277a.38.38,0,0,0,.043.175,1.161,1.161,0,0,0-.343.133Zm2.843,3.2h-.2a.4.4,0,0,1-.4-.4v-.818a.4.4,0,0,1,.4-.4h.2a.4.4,0,0,1,.4.4v.818A.4.4,0,0,1,13.565,80.58Zm3.041,3.263-.4-.108a.382.382,0,0,0-.469.271l-.1.379L13.9,81.3a1.16,1.16,0,0,0,.24-.1l1.321.623Zm.314-2.388a.4.4,0,0,1-.388.024l-1.876-.885a1.162,1.162,0,0,0,.077-.417v-.818a1.163,1.163,0,0,0-.073-.405l1.872-.883a.4.4,0,0,1,.575.364v2.68h0A.4.4,0,0,1,16.92,81.456Zm1.9-.877h-.947V78.435a1.168,1.168,0,0,0-1.666-1.056l-2.056.97a1.16,1.16,0,0,0-.346-.133.38.38,0,0,0,.042-.174V74.765h3.825a1.149,1.149,0,0,1,1.147,1.147v4.666Z" transform="translate(0 -74)" fill="#2e2e2e"/>
      </g>
    </g>
    <g id="Group_10986" data-name="Group 10986" transform="translate(9.056 87.158)">
      <g id="Group_10985" data-name="Group 10985">
        <path id="Path_19547" data-name="Path 19547" d="M237.4,418.112a.382.382,0,1,0,.112.27A.385.385,0,0,0,237.4,418.112Z" transform="translate(-236.75 -418)" fill="#2e2e2e"/>
      </g>
    </g>
    <g id="Group_10988" data-name="Group 10988" transform="translate(2.065 76.065)">
      <g id="Group_10987" data-name="Group 10987">
        <path id="Path_19548" data-name="Path 19548" d="M60.024,128H54.382a.382.382,0,0,0,0,.765h5.642a.382.382,0,0,0,0-.765Z" transform="translate(-54 -128)" fill="#2e2e2e"/>
      </g>
    </g>
    <g id="Group_10990" data-name="Group 10990" transform="translate(2.065 84.71)">
      <g id="Group_10989" data-name="Group 10989">
        <path id="Path_19549" data-name="Path 19549" d="M60.024,354H54.382a.383.383,0,0,0,0,.765h5.642a.383.383,0,0,0,0-.765Z" transform="translate(-54 -354)" fill="#2e2e2e"/>
      </g>
    </g>
    <g id="Group_10992" data-name="Group 10992" transform="translate(2.065 78.131)">
      <g id="Group_10991" data-name="Group 10991">
        <path id="Path_19550" data-name="Path 19550" d="M56.754,182H54.382a.382.382,0,0,0,0,.765h2.371a.382.382,0,0,0,0-.765Z" transform="translate(-54 -182)" fill="#2e2e2e"/>
      </g>
    </g>
    <g id="Group_10994" data-name="Group 10994" transform="translate(5.917 78.131)">
      <g id="Group_10993" data-name="Group 10993">
        <path id="Path_19551" data-name="Path 19551" d="M155.343,182.112a.382.382,0,1,0,.112.27A.385.385,0,0,0,155.343,182.112Z" transform="translate(-154.69 -182)" fill="#2e2e2e"/>
      </g>
    </g>
  </g>
</svg>
