<svg xmlns="http://www.w3.org/2000/svg" width="31" height="31" viewBox="0 0 31 31">
  <g id="Group_12183" data-name="Group 12183" transform="translate(-32 -335)">
    <g id="Ellipse_544" data-name="Ellipse 544" transform="translate(32 335)" fill="#fff" stroke="#47cacc" stroke-width="1">
      <circle cx="15.5" cy="15.5" r="15.5" stroke="none"/>
      <circle cx="15.5" cy="15.5" r="15" fill="none"/>
    </g>
    <g id="male-user" transform="translate(-9.025 340)">
      <g id="Group_9257" data-name="Group 9257" transform="translate(48.026 0)">
        <path id="Path_17960" data-name="Path 17960" d="M62.2,242.931a9.3,9.3,0,0,1-3.418-1.769l-.081.077a3.437,3.437,0,0,1-2.232,1.072H56.4a3.437,3.437,0,0,1-2.232-1.072l-.081-.077a9.3,9.3,0,0,1-3.418,1.769c-3.564,1.331-2.494,6.749-2.495,6.791.112.6.178.811.235.834,3.579,1.593,12.471,1.593,16.05,0,.057-.023.122-.231.235-.834C64.694,249.68,65.779,244.284,62.2,242.931Z" transform="translate(-48.026 -230.803)" fill="#47cacc"/>
        <path id="Path_17961" data-name="Path 17961" d="M161.008,5.217l-.03-.032a2.485,2.485,0,0,1-.185-.173,7.088,7.088,0,0,0,.069-2.6c-.44-1.333-3.07-2.226-3.6-2.33,0,0-.321-.065-.341-.065a1.635,1.635,0,0,0-.9.126,4.345,4.345,0,0,0-2.415,2.269,7.089,7.089,0,0,0,.069,2.6,2.487,2.487,0,0,1-.185.173l-.03.032a1.569,1.569,0,0,0,.046,1.137,2.6,2.6,0,0,0,.351.755c.425,2,1.9,3.7,3.412,3.7s2.908-1.705,3.334-3.7a2.6,2.6,0,0,0,.352-.755C161.11,5.853,161.147,5.338,161.008,5.217Z" transform="translate(-148.855 0)" fill="#47cacc"/>
      </g>
    </g>
  </g>
</svg>
