<svg xmlns="http://www.w3.org/2000/svg" width="16" height="15.421" viewBox="0 0 16 15.421">
  <g id="offer_1_" data-name="offer (1)" transform="translate(-7.442 -8.984)">
    <path id="Path_19514" data-name="Path 19514" d="M22.6,14.981a1.311,1.311,0,0,1-.359-1.105l.053-.372a2.065,2.065,0,0,0-1.7-2.335l-.37-.066a1.315,1.315,0,0,1-.94-.682l-.177-.331A2.065,2.065,0,0,0,16.362,9.2l-.338.164a1.314,1.314,0,0,1-1.162,0L14.525,9.2a2.067,2.067,0,0,0-2.745.891l-.177.331a1.313,1.313,0,0,1-.94.682l-.37.066A2.065,2.065,0,0,0,8.6,13.5l.053.372a1.311,1.311,0,0,1-.359,1.105l-.261.269a2.064,2.064,0,0,0,0,2.885l.261.271a1.311,1.311,0,0,1,.359,1.105l-.053.372a2.065,2.065,0,0,0,1.7,2.335l.37.066a1.315,1.315,0,0,1,.94.682l.177.331a2.065,2.065,0,0,0,2.745.891l.336-.162a1.314,1.314,0,0,1,1.162,0l.336.165A2.067,2.067,0,0,0,19.1,23.3l.177-.331a1.313,1.313,0,0,1,.94-.682l.37-.066a2.065,2.065,0,0,0,1.7-2.335l-.053-.372a1.312,1.312,0,0,1,.359-1.105l.261-.269a2.064,2.064,0,0,0,0-2.885Zm-.28,2.634-.261.269a2.065,2.065,0,0,0-.564,1.733l.053.372a1.317,1.317,0,0,1-1.081,1.489l-.37.066a2.056,2.056,0,0,0-1.474,1.071l-.177.331a1.318,1.318,0,0,1-1.75.57l-.336-.165a2.059,2.059,0,0,0-1.823,0l-.336.165a1.317,1.317,0,0,1-1.75-.57l-.177-.331a2.063,2.063,0,0,0-1.474-1.071l-.37-.066a1.317,1.317,0,0,1-1.081-1.489l.053-.372a2.057,2.057,0,0,0-.564-1.733l-.261-.271a1.316,1.316,0,0,1,0-1.84l.261-.269A2.065,2.065,0,0,0,9.4,13.771L9.342,13.4a1.317,1.317,0,0,1,1.081-1.489l.37-.066a2.056,2.056,0,0,0,1.474-1.071l.177-.331a1.317,1.317,0,0,1,1.165-.7,1.335,1.335,0,0,1,.585.135l.336.165a2.059,2.059,0,0,0,1.823,0l.336-.165a1.317,1.317,0,0,1,1.75.57l.177.331a2.063,2.063,0,0,0,1.474,1.071l.37.066A1.317,1.317,0,0,1,21.542,13.4l-.053.372a2.057,2.057,0,0,0,.564,1.733l.261.271A1.316,1.316,0,0,1,22.315,17.615Z" transform="translate(0 0)" fill="#2e2e2e"/>
    <path id="Path_19515" data-name="Path 19515" d="M39.6,33.615a.377.377,0,0,0-.532,0l-5.45,5.45a.376.376,0,1,0,.53.532l5.45-5.45A.375.375,0,0,0,39.6,33.615Z" transform="translate(-21.163 -19.912)" fill="#2e2e2e"/>
    <path id="Path_19516" data-name="Path 19516" d="M34.968,30.912a1.6,1.6,0,1,0-1.13-.468A1.591,1.591,0,0,0,34.968,30.912Zm-.6-2.2a.844.844,0,1,1-.248.6A.843.843,0,0,1,34.37,28.716Z" transform="translate(-21.054 -15.212)" fill="#2e2e2e"/>
    <path id="Path_19517" data-name="Path 19517" d="M50.1,55.758a1.6,1.6,0,1,0,2.728,1.13,1.6,1.6,0,0,0-2.728-1.13Zm1.728,1.728a.844.844,0,1,1,.248-.6A.848.848,0,0,1,51.832,57.486Z" transform="translate(-34.263 -37.602)" fill="#2e2e2e"/>
  </g>
</svg>
