<svg xmlns="http://www.w3.org/2000/svg" width="33" height="30.55" viewBox="0 0 33 30.55">
  <g id="physiotherapeutic" transform="translate(0 -56.096)">
    <path id="Path_21049" data-name="Path 21049" d="M31.2,61H28.139a2.414,2.414,0,0,0-2.411,2.411v.039h-1.3v-4.94A2.414,2.414,0,0,0,22.013,56.1H2.411A2.414,2.414,0,0,0,0,58.507V81.172a4.253,4.253,0,0,0,4.249,4.249H20.175a4.253,4.253,0,0,0,4.249-4.249V80.52h1.3v.04A2.415,2.415,0,0,0,27.566,82.9v3.172a.573.573,0,0,0,1.146,0V82.9a2.415,2.415,0,0,0,1.838-2.341V67.043H31.2a1.8,1.8,0,0,0,1.8-1.8v-2.45A1.8,1.8,0,0,0,31.2,61Zm-4.328,2.411a1.266,1.266,0,0,1,1.265-1.265H29.4V78.149H26.874Zm-3.6,17.765a3.106,3.106,0,0,1-3.1,3.1H4.249a3.106,3.106,0,0,1-3.1-3.1V58.507a1.266,1.266,0,0,1,1.265-1.265h19.6a1.266,1.266,0,0,1,1.265,1.265V81.172Zm1.146-1.8V64.593h1.3V79.374Zm3.715,2.45a1.266,1.266,0,0,1-1.265-1.265V79.295H29.4V80.56A1.266,1.266,0,0,1,28.139,81.824Zm3.715-16.579a.653.653,0,0,1-.652.652H30.55V62.143H31.2a.653.653,0,0,1,.652.652Z" transform="translate(0 0)" fill="#e5184e"/>
    <path id="Path_21052" data-name="Path 21052" d="M63.371,113.993a.573.573,0,0,0-.573.573,6.778,6.778,0,0,1-13.555,0v-8.459a.77.77,0,0,1,.769-.769H62.029a.77.77,0,0,1,.769.769v6.009a.573.573,0,1,0,1.146,0v-6.009a1.917,1.917,0,0,0-1.915-1.915H50.011a1.917,1.917,0,0,0-1.915,1.915v8.459a7.924,7.924,0,0,0,15.848,0A.573.573,0,0,0,63.371,113.993Z" transform="translate(-44.421 -44.421)" fill="#e5184e"/>
    <path id="Path_21053" data-name="Path 21053" d="M91.108,141.118v-3.675a1.187,1.187,0,0,0-1.186-1.186H84.409a.573.573,0,0,0,0,1.146h5.513a.039.039,0,0,1,.039.039v3.675a.039.039,0,0,1-.039.039H81.347a.039.039,0,0,1-.039-.039v-3.675a.039.039,0,0,1,.039-.039h.612a.573.573,0,1,0,0-1.146h-.612a1.187,1.187,0,0,0-1.186,1.186v3.675a1.187,1.187,0,0,0,1.186,1.186h8.576A1.187,1.187,0,0,0,91.108,141.118Z" transform="translate(-74.035 -74.035)" fill="#e5184e"/>
    <path id="Path_21054" data-name="Path 21054" d="M112.226,235.474a3.023,3.023,0,1,0,3.023-3.023A3.027,3.027,0,0,0,112.226,235.474Zm4.9,0a1.877,1.877,0,1,1-1.877-1.877A1.879,1.879,0,0,1,117.127,235.474Z" transform="translate(-103.65 -162.878)" fill="#e5184e"/>
    <path id="Path_21055" data-name="Path 21055" d="M41.879,336.66a1.8,1.8,0,1,0,1.8,1.8A1.8,1.8,0,0,0,41.879,336.66Zm0,2.45a.652.652,0,1,1,.652-.652A.653.653,0,0,1,41.879,339.11Z" transform="translate(-37.018 -259.124)" fill="#e5184e"/>
    <path id="Path_21056" data-name="Path 21056" d="M234.266,336.66a1.8,1.8,0,1,0,1.8,1.8A1.8,1.8,0,0,0,234.266,336.66Zm0,2.45a.652.652,0,1,1,.652-.652A.653.653,0,0,1,234.266,339.11Z" transform="translate(-214.703 -259.124)" fill="#e5184e"/>
  </g>
</svg>
