<svg xmlns="http://www.w3.org/2000/svg" width="14.849" height="14.849" viewBox="0 0 14.849 14.849">
  <path id="Icon_metro-cross" data-name="Icon metro-cross" d="M17.285,13.858h0l-4.5-4.5,4.5-4.5h0a.465.465,0,0,0,0-.656L15.156,2.064a.465.465,0,0,0-.656,0h0L10,6.568l-4.5-4.5h0a.465.465,0,0,0-.656,0L2.706,4.192a.465.465,0,0,0,0,.656h0l4.5,4.5-4.5,4.5h0a.465.465,0,0,0,0,.656l2.128,2.128a.465.465,0,0,0,.656,0h0l4.5-4.5,4.5,4.5h0a.465.465,0,0,0,.656,0l2.128-2.128a.465.465,0,0,0,0-.656Z" transform="translate(-2.571 -1.928)" fill="#707070"/>
</svg>
