<svg xmlns="http://www.w3.org/2000/svg" width="9.496" height="9.496" viewBox="0 0 9.496 9.496">
  <path id="Icon_metro-cross" data-name="Icon metro-cross" d="M11.98,9.557h0L9.1,6.676,11.98,3.8h0a.3.3,0,0,0,0-.42L10.619,2.015a.3.3,0,0,0-.42,0h0L7.319,4.9,4.438,2.015h0a.3.3,0,0,0-.42,0L2.657,3.376a.3.3,0,0,0,0,.42h0L5.538,6.676,2.657,9.557h0a.3.3,0,0,0,0,.42l1.361,1.361a.3.3,0,0,0,.42,0h0L7.319,8.457,10.2,11.338h0a.3.3,0,0,0,.42,0L11.98,9.977a.3.3,0,0,0,0-.42Z" transform="translate(-2.571 -1.928)" fill="#707070"/>
</svg>
