<svg xmlns="http://www.w3.org/2000/svg" width="32.455" height="36.781" viewBox="0 0 32.455 36.781">
  <g id="kcal" transform="translate(-52.724 -5.219)">
    <path id="Path_21494" data-name="Path 21494" d="M80.869,11.845A1.176,1.176,0,0,0,79,12.082a4.361,4.361,0,0,1-.954,1.3,1.142,1.142,0,0,1-1.895-.533,9.727,9.727,0,0,0-2.543-5.613c-1.307-1.369-2.667-1.747-3.633-3.36a5.93,5.93,0,0,1-.824-2.863A1.212,1.212,0,0,0,67.1.35a17.372,17.372,0,0,0-5.576,12.175,1.12,1.12,0,0,1-1.957.555,4.393,4.393,0,0,1-.665-1.011,1.175,1.175,0,0,0-1.861-.228c-6.356,6.809-5.449,16.538,1.15,21.554,5.943,4.515,15.585,4.515,21.527,0C86.313,28.38,87.222,18.654,80.869,11.845Z" transform="translate(0 5.219)" fill="#ff8c95"/>
    <path id="Path_21495" data-name="Path 21495" d="M216.844,325.421a2.884,2.884,0,0,1-.773-5.706,15.39,15.39,0,0,0,10.234-6.885,2.417,2.417,0,0,1,4.328,2.075A15.542,15.542,0,0,1,216.844,325.421Z" transform="translate(-146.438 -283.477)" fill="#ff6d7a"/>
    <g id="Group_12180" data-name="Group 12180" transform="translate(57.999 21.633)">
      <path id="Path_21496" data-name="Path 21496" d="M116.011,244.353a.724.724,0,0,0-1.332-.569,2.8,2.8,0,0,1-2.231,1.7v-5.758a.724.724,0,1,0-1.448,0v9.414a.724.724,0,1,0,1.448,0v-2.2a4.829,4.829,0,0,0,.819-.16,4.42,4.42,0,0,1,1.364,2.479.724.724,0,1,0,1.428-.244,5.792,5.792,0,0,0-1.428-2.906A4.212,4.212,0,0,0,116.011,244.353Z" transform="translate(-111 -238.999)" fill="#fff"/>
      <path id="Path_21497" data-name="Path 21497" d="M187.423,291.469a.724.724,0,0,0-1.012.154,1.087,1.087,0,0,1-1.963-.642v-1.448a1.086,1.086,0,0,1,1.959-.647.724.724,0,1,0,1.163-.864,2.534,2.534,0,0,0-4.57,1.511v1.448a2.535,2.535,0,0,0,4.578,1.5A.724.724,0,0,0,187.423,291.469Z" transform="translate(-176.482 -282.654)" fill="#fff"/>
      <path id="Path_21498" data-name="Path 21498" d="M254.032,287h-1.584a.724.724,0,0,0,0,1.448h1.584a.589.589,0,0,1,.588.588v.407h-1.584a2.037,2.037,0,1,0,0,4.073h1a2.039,2.039,0,0,0,2.037-2.037v-2.444A2.039,2.039,0,0,0,254.032,287Zm.588,4.481a.589.589,0,0,1-.588.588h-1a.589.589,0,0,1-.415-1.005.581.581,0,0,1,.415-.172h1.584Z" transform="translate(-238.327 -282.654)" fill="#fff"/>
      <path id="Path_21499" data-name="Path 21499" d="M325.9,248.413a1.45,1.45,0,0,1-1.448-1.448v-7.241a.724.724,0,0,0-1.448,0v7.241a2.9,2.9,0,0,0,2.9,2.9.724.724,0,1,0,0-1.448Z" transform="translate(-303.81 -238.999)" fill="#fff"/>
    </g>
  </g>
</svg>
