<svg xmlns="http://www.w3.org/2000/svg" width="116.612" height="24.635" viewBox="0 0 116.612 24.635">
  <g id="razorpay-logo.5cdb58df" transform="translate(-0.8 -0.48)">
    <path id="Path_19544" data-name="Path 19544" d="M107.849,6.956l-.969,3.568,5.548-3.588L108.8,20.474l3.685,0,5.361-20" transform="translate(-99.551)" fill="#3395ff"/>
    <path id="Path_19545" data-name="Path 19545" d="M2.326,86.981.8,92.673H8.353l3.091-11.579L2.326,86.981M28.564,81.97a2.411,2.411,0,0,1-1.071,1.512,4.311,4.311,0,0,1-2.231.483H22.216l1.07-3.988h3.046a2.976,2.976,0,0,1,1.973.486,1.417,1.417,0,0,1,.26,1.514m3.154-.086a3.371,3.371,0,0,0-.481-3.323q-1.062-1.154-3.722-1.157h-6.8L16.623,92.679h3.3l1.649-6.155h2.166a2.392,2.392,0,0,1,1.148.234,1.041,1.041,0,0,1,.495.837l.59,5.084h3.539L28.94,87.94a1.87,1.87,0,0,0-1.452-1.865,6.272,6.272,0,0,0,2.726-1.563,5.7,5.7,0,0,0,1.5-2.616m8.029,5.318a4.944,4.944,0,0,1-1.276,2.363,2.882,2.882,0,0,1-2.063.819,1.718,1.718,0,0,1-1.662-.8,3.2,3.2,0,0,1-.031-2.326,5.01,5.01,0,0,1,1.3-2.382,2.931,2.931,0,0,1,2.1-.859,1.65,1.65,0,0,1,1.625.827,3.363,3.363,0,0,1,.012,2.369Zm1.448-5.4-.414,1.545a2.448,2.448,0,0,0-1.037-1.329,3.486,3.486,0,0,0-1.906-.492,5.4,5.4,0,0,0-2.677.72,7.079,7.079,0,0,0-2.246,2.031,8.933,8.933,0,0,0-1.409,2.979,6.417,6.417,0,0,0-.178,2.948A3.213,3.213,0,0,0,32.5,92.175a3.694,3.694,0,0,0,2.314.689,5.2,5.2,0,0,0,3.914-1.779l-.431,1.61h3.194L44.4,81.816H41.2Zm14.688,0H46.594l-.649,2.425h5.4L44.2,90.408l-.611,2.277h9.589l.649-2.425H48.04L55.3,84m8.764,3.2a4.976,4.976,0,0,1-1.277,2.4,2.879,2.879,0,0,1-2.046.794q-2.511,0-1.653-3.194a4.945,4.945,0,0,1,1.284-2.39A2.928,2.928,0,0,1,62.449,84a1.649,1.649,0,0,1,1.619.8,3.424,3.424,0,0,1-.008,2.392m1.87-4.975a5.253,5.253,0,0,0-2.819-.687,7.589,7.589,0,0,0-3.219.683,6.96,6.96,0,0,0-2.523,1.973,7.973,7.973,0,0,0-1.5,3,5.782,5.782,0,0,0-.1,3,3.24,3.24,0,0,0,1.465,1.969,5.356,5.356,0,0,0,2.856.687,7.435,7.435,0,0,0,3.188-.688,7.03,7.03,0,0,0,2.511-1.976,8,8,0,0,0,1.5-3,5.741,5.741,0,0,0,.111-3,3.26,3.26,0,0,0-1.452-1.973m11.392,2.511.819-2.96a2.407,2.407,0,0,0-1.1-.215,4.366,4.366,0,0,0-2.111.548,4.607,4.607,0,0,0-1.5,1.3l.425-1.594-.927,0H70.669L67.733,92.674h3.239L72.5,86.99a3.6,3.6,0,0,1,1.2-1.939,3.3,3.3,0,0,1,2.148-.7,3.186,3.186,0,0,1,1.489.363m9.016,2.53a4.847,4.847,0,0,1-1.268,2.326,2.907,2.907,0,0,1-2.062.806,1.686,1.686,0,0,1-1.637-.812,3.256,3.256,0,0,1-.025-2.361,4.9,4.9,0,0,1,1.286-2.369,2.916,2.916,0,0,1,2.074-.828,1.611,1.611,0,0,1,1.6.855,3.431,3.431,0,0,1,.017,2.382m2.265-5.01a3.562,3.562,0,0,0-2.3-.72,5.08,5.08,0,0,0-2.326.558A4.853,4.853,0,0,0,82.183,83.6l.011-.074.543-1.729H79.574l-.806,3.01-.025.1-3.323,12.4h3.243l1.674-6.241a2.24,2.24,0,0,0,1.022,1.306,3.627,3.627,0,0,0,1.914.47,5.638,5.638,0,0,0,2.693-.683,6.665,6.665,0,0,0,2.222-1.963,8.673,8.673,0,0,0,1.391-2.948,6.563,6.563,0,0,0,.191-2.982,3.322,3.322,0,0,0-1.163-2.025M99.355,87.2a4.935,4.935,0,0,1-1.274,2.357,2.885,2.885,0,0,1-2.062.817,1.713,1.713,0,0,1-1.662-.8,3.191,3.191,0,0,1-.031-2.326,5,5,0,0,1,1.3-2.382,2.932,2.932,0,0,1,2.1-.858,1.658,1.658,0,0,1,1.625.825,3.371,3.371,0,0,1,.009,2.369ZM100.8,81.8l-.414,1.545a2.426,2.426,0,0,0-1.034-1.329,3.482,3.482,0,0,0-1.908-.492,5.422,5.422,0,0,0-2.683.72,7.086,7.086,0,0,0-2.246,2.025,8.91,8.91,0,0,0-1.409,2.979,6.387,6.387,0,0,0-.178,2.952A3.2,3.2,0,0,0,92.1,92.159a3.724,3.724,0,0,0,2.314.686,5.118,5.118,0,0,0,2.166-.474,5.065,5.065,0,0,0,1.744-1.307l-.431,1.611h3.194L104,81.8h-3.194Zm16.609,0,0,0h-1.963c-.063,0-.118,0-.175,0h-1.019l-.523.726-.129.172-.055.086-4.139,5.766-.855-6.752h-3.39l1.717,10.26-3.791,5.25h3.379l.917-1.3c.026-.038.049-.07.08-.111l1.071-1.52.031-.043,4.8-6.8,4.044-5.724.006,0h0Z" transform="translate(0 -72.195)" fill="#072654"/>
  </g>
</svg>
