<svg xmlns="http://www.w3.org/2000/svg" width="34.024" height="34.77" viewBox="0 0 34.024 34.77">
  <g id="walking" transform="translate(-5.498)">
    <path id="Path_21500" data-name="Path 21500" d="M44.794,4.65,34.767.069h0c-.5-.045-1-.069-1.509-.069A16.638,16.638,0,0,0,16.629,16.116a3.025,3.025,0,0,1,1.423-.552,2.533,2.533,0,0,1,1.835.58.817.817,0,0,0,1.049,0,2.54,2.54,0,0,1,3.254,0,.816.816,0,0,0,1.048,0,2.54,2.54,0,0,1,3.254,0,.816.816,0,0,0,1.048,0,2.54,2.54,0,0,1,3.254,0,.816.816,0,0,0,1.048,0,2.54,2.54,0,0,1,3.254,0,.816.816,0,0,0,1.048,0,2.54,2.54,0,0,1,3.254,0,.816.816,0,0,0,1.048,0,2.54,2.54,0,0,1,3.254,0,.817.817,0,0,0,1.049,0,2.533,2.533,0,0,1,1.835-.58,3.066,3.066,0,0,1,1.3.467A16.59,16.59,0,0,0,44.794,4.65Z" transform="translate(-10.375)" fill="#ff8c95"/>
    <path id="Path_21501" data-name="Path 21501" d="M49.3,232.2a16.677,16.677,0,0,0,.47-3.939c0-.242-.006-.482-.017-.721a2.533,2.533,0,0,0-3.132.09.817.817,0,0,1-1.049,0,2.54,2.54,0,0,0-3.254,0,.816.816,0,0,1-1.048,0,2.54,2.54,0,0,0-3.254,0,.816.816,0,0,1-1.048,0,2.54,2.54,0,0,0-3.254,0,.816.816,0,0,1-1.048,0,2.54,2.54,0,0,0-3.254,0,.816.816,0,0,1-1.048,0,2.54,2.54,0,0,0-3.254,0,.816.816,0,0,1-1.048,0,2.54,2.54,0,0,0-3.254,0,.817.817,0,0,1-1.049,0,2.531,2.531,0,0,0-3.255.007c-.008.207-.013.415-.013.624a16.677,16.677,0,0,0,.47,3.939Z" transform="translate(-10.249 -211.627)" fill="#ff8c95"/>
    <path id="Path_21502" data-name="Path 21502" d="M43.067,231.737A2.529,2.529,0,0,1,44.1,230.35a.816.816,0,0,0,.3-1,2.542,2.542,0,0,1,.122-2.234,2.541,2.541,0,0,0-2.208.522.816.816,0,0,1-1.048,0,2.54,2.54,0,0,0-3.254,0,.816.816,0,0,1-1.048,0,2.54,2.54,0,0,0-3.254,0,.816.816,0,0,1-1.048,0,2.54,2.54,0,0,0-3.254,0,.816.816,0,0,1-1.048,0,2.54,2.54,0,0,0-3.254,0,.816.816,0,0,1-1.048,0,2.54,2.54,0,0,0-3.254,0,.817.817,0,0,1-1.049,0,2.531,2.531,0,0,0-3.255.007c-.008.207-.013.415-.013.624a16.677,16.677,0,0,0,.47,3.939H42.972A2.564,2.564,0,0,1,43.067,231.737Z" transform="translate(-10.249 -211.627)" fill="#ff8c95"/>
    <path id="Path_21503" data-name="Path 21503" d="M22.935,301.005a16.642,16.642,0,0,0,32.4,0Z" transform="translate(-16.253 -280.563)" fill="#ff6d7a"/>
    <path id="Path_21504" data-name="Path 21504" d="M39.136,313.839a16.6,16.6,0,0,0,12.756-5.957c-3.2-.945-4.314-3.1-2.9-4.09,1.843-1.29,0-2.788,0-2.788H22.935A16.644,16.644,0,0,0,39.136,313.839Z" transform="translate(-16.253 -280.563)" fill="#ff8c95"/>
    <path id="Path_21505" data-name="Path 21505" d="M153.285,131.586a.9.9,0,0,1-.691-.107,29.172,29.172,0,0,1-6.084-4.967.907.907,0,0,1-.232-.733c-1.212,1.457-2.37,2.675-3.2,3.5a.968.968,0,0,1,.455,1.366,2.911,2.911,0,0,0,.761,3.929,4.19,4.19,0,0,0,3.06.748,11.538,11.538,0,0,1,2.547-.073,10.063,10.063,0,0,0,2-.711.881.881,0,0,1,.434-.088A3.87,3.87,0,0,1,153.285,131.586Z" transform="translate(-128.239 -117.236)" fill="#f7f3f1"/>
    <path id="Path_21506" data-name="Path 21506" d="M146.511,126.51a.907.907,0,0,1-.232-.733c-1.212,1.457-2.37,2.675-3.2,3.5a.968.968,0,0,1,.455,1.366,2.911,2.911,0,0,0,.761,3.929,4.191,4.191,0,0,0,3.06.748c.305-.02.576-.044.826-.066a3.382,3.382,0,0,0-.4-.324c-2.77-1.919,2.139-5.191,2.139-5.191l-.163-.247A28.133,28.133,0,0,1,146.511,126.51Z" transform="translate(-128.24 -117.235)" fill="#cde2ff"/>
    <path id="Path_21507" data-name="Path 21507" d="M221.086,1.014c-.986,1.457-2.149,3.226-3.441,5.283-.357.568-.735,1.12-1.122,1.655a.743.743,0,0,1,.265.21,19.7,19.7,0,0,0,6.056,4.98.727.727,0,0,1,.333.374c2.155-2.155,5.13-5.022,7.937-7.92A16.58,16.58,0,0,0,221.086,1.014Z" transform="translate(-196.694 -0.945)" fill="#f9cfa9"/>
    <path id="Path_21508" data-name="Path 21508" d="M221.087,1.014c-.986,1.457-2.149,3.226-3.441,5.283-.357.568-.735,1.12-1.122,1.655a.743.743,0,0,1,.265.21,18.91,18.91,0,0,0,3.65,3.463,3.491,3.491,0,0,1,.7-3.036L226.4,2.4a16.538,16.538,0,0,0-5.309-1.39Z" transform="translate(-196.695 -0.945)" fill="#fbbc8d"/>
    <path id="Path_21509" data-name="Path 21509" d="M64.54,192.857l-.079-.027a33.376,33.376,0,0,1-4.643-1.758c-2.683-3.6-4.684-7.454-5.848-9.239-1.881-2.884-4.952.239-7.573-1.579a2.809,2.809,0,0,1-.971-3.757,1.078,1.078,0,0,0-.343-1.337,1.064,1.064,0,0,0-1.181,0l-2.513,1.6a5.07,5.07,0,0,1-.657.352,6.928,6.928,0,0,0-3.166,3.324,7.021,7.021,0,0,0,1.246,1.889,23.173,23.173,0,0,0,7.385,5.232,10.118,10.118,0,0,1,3.254,2.336,33.49,33.49,0,0,0,5.112,4.476,2.556,2.556,0,0,0,.89.4,32.8,32.8,0,0,0,7.9.85,3.688,3.688,0,0,0,1.185-2.752Z" transform="translate(-29.89 -163.095)" fill="#e5646e"/>
    <path id="Path_21510" data-name="Path 21510" d="M48.149,180.85a3.394,3.394,0,0,1-1.755-.6,2.809,2.809,0,0,1-.971-3.757,1.078,1.078,0,0,0-.343-1.337,1.065,1.065,0,0,0-1.181,0l-2.513,1.6a5.07,5.07,0,0,1-.657.352,6.928,6.928,0,0,0-3.166,3.324,7.023,7.023,0,0,0,1.246,1.889,22.581,22.581,0,0,0,5.668,4.374,1.075,1.075,0,0,0,.213-.8C44.04,180.964,48.149,180.85,48.149,180.85Z" transform="translate(-29.888 -163.094)" fill="#e7387f"/>
    <path id="Path_21511" data-name="Path 21511" d="M37.564,209.593a7.021,7.021,0,0,0,1.246,1.889,21.362,21.362,0,0,0,2.992,2.664l.354-.124a2.539,2.539,0,0,0,1.258-3.832l-2.685-3.922A6.928,6.928,0,0,0,37.564,209.593Z" transform="translate(-29.888 -192.261)" fill="#c6237c"/>
    <path id="Path_21512" data-name="Path 21512" d="M195.58,352.467l-7.057,1.436a10.175,10.175,0,0,1,1.633,1.416q.163.175.328.347l6.267-1.276C196.333,353.724,195.942,353.077,195.58,352.467Z" transform="translate(-170.596 -328.531)" fill="#e7387f"/>
    <path id="Path_21513" data-name="Path 21513" d="M154.142,324.077l-8.858,1.8c.478.251.921.465,1.315.642a10.077,10.077,0,0,1,1.621.919L155.277,326C154.862,325.306,154.483,324.656,154.142,324.077Z" transform="translate(-130.293 -302.069)" fill="#c6237c"/>
    <path id="Path_21514" data-name="Path 21514" d="M303.469,424.515a.526.526,0,0,1-.107-.736l.468-.627a.526.526,0,1,1,.843.629l-.468.627A.526.526,0,0,1,303.469,424.515Z" transform="translate(-277.538 -394.218)" fill="#e7387f"/>
    <path id="Path_21515" data-name="Path 21515" d="M343.8,408.307l-.079-.027a33.383,33.383,0,0,1-4.643-1.758l-.1-.138-.779-.054a3.582,3.582,0,0,1-.966-.2l-.059.041s1.6,2.358.434,4.579a31.977,31.977,0,0,0,5.009.314,3.689,3.689,0,0,0,1.185-2.752Z" transform="translate(-309.151 -378.546)" fill="#e7387f"/>
    <path id="Path_21516" data-name="Path 21516" d="M340.9,407.312c-.615-.238-1.224-.5-1.824-.79l-.1-.138-.779-.054a3.583,3.583,0,0,1-.966-.2l-.059.041s1.6,2.358.434,4.579q.731.1,1.409.167C338.577,408.183,340.3,407.474,340.9,407.312Z" transform="translate(-309.151 -378.546)" fill="#c6237c"/>
    <path id="Path_21517" data-name="Path 21517" d="M196.9,106.011a19.513,19.513,0,0,1-6.027-4.955.837.837,0,0,0-1.313,0q-.346.44-.69.859a1,1,0,0,0,.037,1.32,29.231,29.231,0,0,0,6.1,4.984,1.007,1.007,0,0,0,1.221-.13q.056-.053.116-.106l.7-.61A.835.835,0,0,0,196.9,106.011Z" transform="translate(-170.706 -93.897)" fill="#aad1f7"/>
    <path id="Path_21518" data-name="Path 21518" d="M417.451,437.844a3.527,3.527,0,0,1-1.176,2.781,19.679,19.679,0,0,0,2.531-.176q.013-.048.024-.1A2.113,2.113,0,0,0,417.451,437.844Z" transform="translate(-382.881 -408.11)" fill="#f7f3f1"/>
    <path id="Path_21519" data-name="Path 21519" d="M35.875,270.11a30.226,30.226,0,0,1-10.343-.7,2.1,2.1,0,0,1-.736-.331,33.49,33.49,0,0,1-5.16-4.51,10.119,10.119,0,0,0-3.254-2.336A23.173,23.173,0,0,1,9,257a6.993,6.993,0,0,1-1.135-1.656l-.186-.126s-.937.311-1.937,2.117a1.91,1.91,0,0,0,.207,2.156c1.043,1.238,3.612,3.067,9.045,6.015a10.446,10.446,0,0,1,1.955,1.368,47.877,47.877,0,0,0,5.682,4.641,7.335,7.335,0,0,0,2.929.965,26.12,26.12,0,0,0,8.863-.467,1.905,1.905,0,0,0,1.394-1.369l.136-.516Z" transform="translate(0 -237.885)" fill="#cde2ff"/>
    <path id="Path_21520" data-name="Path 21520" d="M9,257a7,7,0,0,1-1.136-1.656l-.185-.126s-.937.311-1.937,2.117a1.91,1.91,0,0,0,.207,2.156c.895,1.062,2.912,2.559,6.9,4.824a1.846,1.846,0,0,1,1.218-2.457,1.105,1.105,0,0,0,.6-.486A22.58,22.58,0,0,1,9,257Z" transform="translate(-0.002 -237.885)" fill="#aad1f7"/>
    <path id="Path_21521" data-name="Path 21521" d="M247.312,237.237c1.115,1.708,3,5.314,5.508,8.776l-4.1-11.1a.964.964,0,0,0-1.376-.479,21.2,21.2,0,0,1-2.264,1.518A2.575,2.575,0,0,1,247.312,237.237Z" transform="translate(-223.308 -218.392)" fill="#c6237c"/>
    <path id="Path_21522" data-name="Path 21522" d="M250.019,238.436l-1.3-3.526a.963.963,0,0,0-1.376-.479,21.2,21.2,0,0,1-2.264,1.518,2.575,2.575,0,0,1,2.236,1.287c.314.482.69,1.114,1.123,1.852A1.378,1.378,0,0,1,250.019,238.436Z" transform="translate(-223.307 -218.392)" fill="#a91e6a"/>
    <path id="Path_21523" data-name="Path 21523" d="M262.107,297.392l-2.2.281.008.012c.792,1.214,1.971,3.386,3.489,5.784a3.574,3.574,0,0,0,2.775,1.651l.887.061A83.714,83.714,0,0,1,262.107,297.392Z" transform="translate(-237.137 -277.196)" fill="#e7387f"/>
    <g id="Group_12181" data-name="Group 12181" transform="translate(24.446 20.884)">
      <path id="Path_21524" data-name="Path 21524" d="M284.52,308.577a.526.526,0,0,1,.41-.62l2.09-.425a.526.526,0,1,1,.21,1.031l-2.09.425A.526.526,0,0,1,284.52,308.577Z" transform="translate(-284.509 -307.521)" fill="#f7f3f1"/>
      <path id="Path_21525" data-name="Path 21525" d="M302.383,338.064a.526.526,0,0,1,.41-.62l1.669-.34a.526.526,0,0,1,.21,1.031l-1.669.34A.526.526,0,0,1,302.383,338.064Z" transform="translate(-301.159 -335.085)" fill="#f7f3f1"/>
      <path id="Path_21526" data-name="Path 21526" d="M320.246,367.549a.526.526,0,0,1,.41-.62l1.249-.254a.526.526,0,1,1,.21,1.031l-1.249.254A.526.526,0,0,1,320.246,367.549Z" transform="translate(-317.809 -362.648)" fill="#f7f3f1"/>
    </g>
    <path id="Path_21527" data-name="Path 21527" d="M212.282,257.163l1.266,2.22a1.456,1.456,0,0,0,1.449.723l2.769-.354c-.359-.609-.675-1.136-.945-1.55-1.18-1.808-2.827-1.255-4.538-1.038Z" transform="translate(-192.741 -239.465)" fill="#e7387f"/>
    <path id="Path_21528" data-name="Path 21528" d="M243.8,263.376a.526.526,0,0,1,.41-.62l3.866-.787a.526.526,0,0,1,.21,1.031l-3.866.787A.526.526,0,0,1,243.8,263.376Z" transform="translate(-222.108 -244.169)" fill="#f7f3f1"/>
    <path id="Path_21529" data-name="Path 21529" d="M190.874,101.056a.837.837,0,0,0-1.313,0q-.346.44-.69.859a1,1,0,0,0,.037,1.32,28.341,28.341,0,0,0,3.478,3.168c-.49-1.972,2.026-1.969,2.026-1.969h0A18.673,18.673,0,0,1,190.874,101.056Z" transform="translate(-170.706 -93.898)" fill="#8bc2ef"/>
  </g>
</svg>
