<svg xmlns="http://www.w3.org/2000/svg" width="17.821" height="17.821" viewBox="0 0 17.821 17.821">
  <g id="weight-scale" transform="translate(0)">
    <g id="Group_12189" data-name="Group 12189" transform="translate(0 0)">
      <g id="Group_12188" data-name="Group 12188" transform="translate(0 0)">
        <g id="Group_12185" data-name="Group 12185">
          <path id="Path_21543" data-name="Path 21543" d="M17.821,1.162v15.5a1.163,1.163,0,0,1-1.162,1.162H1.162A1.161,1.161,0,0,1,0,16.659V1.162A1.161,1.161,0,0,1,1.162,0h15.5a1.163,1.163,0,0,1,1.162,1.162Z" transform="translate(0 0)" fill="#3c4b59"/>
        </g>
        <path id="Path_21544" data-name="Path 21544" d="M20.683,36.75a.569.569,0,0,1-.568-.568v-15.5a.569.569,0,0,1,.568-.568h15.5a.569.569,0,0,1,.568.568v15.5a.569.569,0,0,1-.568.568h-15.5Z" transform="translate(-19.521 -19.523)" fill="#f7f7f7"/>
        <path id="Path_21545" data-name="Path 21545" d="M116.38,254.04q-.04.109-.077.218a7.5,7.5,0,0,0-.209,4.079,1.506,1.506,0,0,1-.741,1.777,1.408,1.408,0,0,1-1.881-.992c-.066-.2-1.456-3.781-.535-5.944.509-1.195,1.557-1.827,2.415-1.373A2.007,2.007,0,0,1,116.38,254.04Z" transform="translate(-109.296 -244.225)" fill="#ff8c95"/>
        <path id="Path_21546" data-name="Path 21546" d="M361.594,254.04q.04.109.077.218a7.5,7.5,0,0,1,.209,4.079,1.506,1.506,0,0,0,.741,1.777,1.408,1.408,0,0,0,1.881-.992c.066-.2,1.456-3.781.535-5.944-.509-1.195-1.557-1.827-2.415-1.373A2.007,2.007,0,0,0,361.594,254.04Z" transform="translate(-350.86 -244.225)" fill="#ff8c95"/>
        <path id="Path_21547" data-name="Path 21547" d="M116.455,253.853a2.026,2.026,0,0,0-1.067-1.527c-.857-.453-1.9.178-2.414,1.374a4.37,4.37,0,0,0-.309,1.537,4.805,4.805,0,0,1,.309-2.049c.509-1.194,1.556-1.826,2.414-1.372A2.018,2.018,0,0,1,116.455,253.853Z" transform="translate(-109.332 -244.235)" fill="#ff6d7a"/>
        <path id="Path_21548" data-name="Path 21548" d="M365.345,255.234a4.351,4.351,0,0,0-.309-1.535c-.509-1.2-1.558-1.828-2.416-1.374a2.026,2.026,0,0,0-1.067,1.523,2.015,2.015,0,0,1,1.067-2.034c.857-.453,1.907.178,2.416,1.372A4.854,4.854,0,0,1,365.345,255.234Z" transform="translate(-350.859 -244.234)" fill="#ff6d7a"/>
        <path id="Path_21549" data-name="Path 21549" d="M163.013,65.48h-8.38a4.191,4.191,0,0,1,8.38,0Z" transform="translate(-150.066 -59.579)" fill="#57b5e6"/>
        <path id="Path_21550" data-name="Path 21550" d="M163.013,65.48h-8.38a4.191,4.191,0,0,1,8.38,0Z" transform="translate(-150.066 -59.579)" fill="#57b5e6"/>
        <g id="Group_12186" data-name="Group 12186" transform="translate(8.558 3.093)">
          <path id="Path_21551" data-name="Path 21551" d="M290.174,104.944v1.871a.2.2,0,1,1-.4,0v-1.871a.2.2,0,1,1,.4,0Z" transform="translate(-289.778 -104.746)" fill="#f7f7f7"/>
        </g>
        <g id="Group_12187" data-name="Group 12187" transform="translate(7.609 4.8)">
          <path id="Path_21552" data-name="Path 21552" d="M259.932,163.666a.151.151,0,0,1-.152.152H257.79a.152.152,0,0,1-.152-.152,1.147,1.147,0,1,1,2.294,0Z" transform="translate(-257.638 -162.519)" fill="#ee4659"/>
        </g>
        <path id="Path_21553" data-name="Path 21553" d="M156.508,59.173h-8.38a.2.2,0,0,1-.2-.2,4.389,4.389,0,0,1,8.776,0,.2.2,0,0,1-.2.2Zm-8.172-.4H156.3a3.993,3.993,0,0,0-7.964,0Z" transform="translate(-143.561 -53.074)" fill="#387dbf"/>
      </g>
    </g>
  </g>
</svg>
