<svg xmlns="http://www.w3.org/2000/svg" width="350" height="133" viewBox="0 0 350 133">
  <g id="Group_12526" data-name="Group 12526" transform="translate(3868 17549)">
    <g id="Rectangle_3743" data-name="Rectangle 3743" transform="translate(-3868 -17549)" fill="#ecf6ff" stroke="#407bff" stroke-width="0.5">
      <rect width="350" height="133" rx="5" stroke="none"/>
      <rect x="0.25" y="0.25" width="349.5" height="132.5" rx="4.75" fill="none"/>
    </g>
    <g id="shubham" transform="translate(-3684.633 -17596.949)">
      <g id="Background_Complete" transform="translate(0 54.95)">
        <rect id="Rectangle_4993" data-name="Rectangle 4993" width="10.611" height="0.08" transform="translate(133.532 110.067)" fill="#ebebeb"/>
        <rect id="Rectangle_4994" data-name="Rectangle 4994" width="2.784" height="0.08" transform="translate(103.335 110.938)" fill="#ebebeb"/>
        <rect id="Rectangle_4995" data-name="Rectangle 4995" width="6.148" height="0.08" transform="translate(127.064 107.094)" fill="#ebebeb"/>
        <rect id="Rectangle_4996" data-name="Rectangle 4996" width="13.838" height="0.08" transform="translate(16.808 107.632)" fill="#ebebeb"/>
        <rect id="Rectangle_4997" data-name="Rectangle 4997" width="2.028" height="0.08" transform="translate(33.5 107.632)" fill="#ebebeb"/>
        <rect id="Rectangle_4998" data-name="Rectangle 4998" width="30.014" height="0.08" transform="translate(42.122 108.984)" fill="#ebebeb"/>
        <path id="Path_21727" data-name="Path 21727" d="M101.9,145.572H40.039a1.831,1.831,0,0,1-1.829-1.829V56.779a1.831,1.831,0,0,1,1.829-1.829h61.867a1.831,1.831,0,0,1,1.829,1.829v86.964A1.836,1.836,0,0,1,101.9,145.572ZM40.039,55.03a1.752,1.752,0,0,0-1.749,1.749v86.964a1.752,1.752,0,0,0,1.749,1.749h61.867a1.752,1.752,0,0,0,1.749-1.749V56.779a1.752,1.752,0,0,0-1.749-1.749Z" transform="translate(-25.968 -54.95)" fill="#ebebeb"/>
        <path id="Path_21728" data-name="Path 21728" d="M318.2,145.572H256.329a1.831,1.831,0,0,1-1.829-1.829V56.779a1.831,1.831,0,0,1,1.829-1.829H318.2a1.831,1.831,0,0,1,1.829,1.829v86.964A1.831,1.831,0,0,1,318.2,145.572ZM256.329,55.03a1.752,1.752,0,0,0-1.749,1.749v86.964a1.752,1.752,0,0,0,1.749,1.749H318.2a1.752,1.752,0,0,0,1.749-1.749V56.779A1.752,1.752,0,0,0,318.2,55.03Z" transform="translate(-172.961 -54.95)" fill="#ebebeb"/>
        <rect id="Rectangle_4999" data-name="Rectangle 4999" width="160.195" height="0.08" transform="translate(0 104.912)" fill="#ebebeb"/>
        <g id="Group_12438" data-name="Group 12438" transform="translate(16.102 5.916)">
          <path id="Path_21729" data-name="Path 21729" d="M50.386,172.384l10.265-.038a1.506,1.506,0,0,1,1.506,1.506v3.617a1.51,1.51,0,0,0,1.509,1.509H78.708a1.512,1.512,0,0,0,1.512-1.506V164.188a1.5,1.5,0,0,1,1.509-1.5h3.2a1.51,1.51,0,0,0,1.509-1.509v-7.247a1.5,1.5,0,0,1,1.506-1.506H93.2a1.5,1.5,0,0,1,1.506,1.506v2.134a1.51,1.51,0,0,0,1.509,1.509h.49a1.5,1.5,0,0,0,1.506-1.506v-7.888a1.51,1.51,0,0,1,1.509-1.509h5.2a1.514,1.514,0,0,1,1.509,1.509v7.9a1.506,1.506,0,0,0,1.506,1.506h1.621a1.506,1.506,0,0,0,1.506-1.506V140.156h-.016v-7.978h.32v4.915c.032-.042.058-.083.093-.122l11.967-6.872c.253-.276.4,0,.4-.368v-9.836l.823-.59L139.6,108.591V104.33h.32v4.034l.061-.045v47.767a1.51,1.51,0,0,0,1.509,1.509h1.964a1.507,1.507,0,0,0,1.509-1.506l.471-17.836a1.2,1.2,0,0,1,.119-.493l2.922-6.1h.218v-6.895a1.22,1.22,0,0,1,1.221-1.221h.586v-4.886h.32v4.886h.308a1.22,1.22,0,0,1,1.221,1.221v.311h1.368v-.311a1.22,1.22,0,0,1,1.221-1.221h.519v-4.886h.32v4.886h.378a1.22,1.22,0,0,1,1.221,1.221v6.895h.218l2.925,6.1a1.2,1.2,0,0,1,.119.493l.481,17.817a1.51,1.51,0,0,0,1.509,1.509h2.759a1.5,1.5,0,0,1,1.506,1.506v2.076a1.5,1.5,0,0,0,1.506,1.506h1.97a1.5,1.5,0,0,1,1.487,1.246l5.248,27.579a1.411,1.411,0,0,1,.029.285,1.512,1.512,0,0,1-1.512,1.506H50.4C50.085,193.283,50.386,172.384,50.386,172.384Z" transform="translate(-50.257 -94.425)" fill="#f5f5f5"/>
          <g id="Group_12437" data-name="Group 12437" transform="translate(1.427)">
            <g id="Group_12436" data-name="Group 12436">
              <g id="Group_12432" data-name="Group 12432" transform="translate(2.069)">
                <path id="Path_21730" data-name="Path 21730" d="M387.686,82.067H366.575a2.406,2.406,0,0,1-.8-4.674.9.9,0,0,1,.1-.032c-2.826-2.355,3.374-7.318,10.108-.445-.525-2.291,5.459-1.464,7.292,1.663C383.918,76.525,389.627,80.091,387.686,82.067Z" transform="translate(-267.087 -73.415)" fill="#f5f5f5"/>
                <path id="Path_21731" data-name="Path 21731" d="M75.564,175.458H63.636s-2.8-1.054-2.435-3.845,4.585-.465,4.585-.465-1.282-3.893,2.81-2.787a6.056,6.056,0,0,1,4.489,4.963S78.458,172.388,75.564,175.458Z" transform="translate(-61.169 -137.807)" fill="#f5f5f5"/>
              </g>
              <g id="Group_12435" data-name="Group 12435" transform="translate(0 68.325)">
                <g id="Group_12433" data-name="Group 12433" transform="translate(98.411)">
                  <rect id="Rectangle_5000" data-name="Rectangle 5000" width="3.018" height="10.82" fill="#e0e0e0"/>
                  <rect id="Rectangle_5001" data-name="Rectangle 5001" width="3.018" height="3.867" transform="translate(5.927 6.952)" fill="#ebebeb"/>
                  <rect id="Rectangle_5002" data-name="Rectangle 5002" width="3.018" height="5.78" transform="translate(11.851 5.037)" fill="#ebebeb"/>
                  <rect id="Rectangle_5003" data-name="Rectangle 5003" width="3.018" height="2.217" transform="translate(17.778 8.602)" fill="#ebebeb"/>
                  <rect id="Rectangle_5004" data-name="Rectangle 5004" width="3.018" height="7.965" transform="translate(23.706 2.851)" fill="#e6e6e6"/>
                </g>
                <g id="Group_12434" data-name="Group 12434" transform="translate(0 0.811)">
                  <rect id="Rectangle_5005" data-name="Rectangle 5005" width="21.953" height="2.688" fill="#ebebeb"/>
                  <rect id="Rectangle_5006" data-name="Rectangle 5006" width="29.799" height="2.688" transform="translate(0 3.816)" fill="#e0e0e0"/>
                  <rect id="Rectangle_5007" data-name="Rectangle 5007" width="8.692" height="2.688" transform="translate(0 7.596)" fill="#ebebeb"/>
                </g>
              </g>
            </g>
          </g>
        </g>
      </g>
      <g id="Shadow" transform="translate(17.977 166.901)">
        <ellipse id="_x3C_Path_x3E__359_" cx="62.12" cy="3.627" rx="62.12" ry="3.627" fill="#f5f5f5"/>
      </g>
      <g id="Route" transform="translate(28.87 70.508)">
        <g id="Group_12456" data-name="Group 12456" transform="translate(0 0)">
          <g id="Group_12450" data-name="Group 12450" transform="translate(0 13.613)">
            <g id="Group_12440" data-name="Group 12440" transform="translate(2.996)">
              <g id="Group_12439" data-name="Group 12439">
                <path id="Path_21732" data-name="Path 21732" d="M177.347,152.27h-8.478l-8.474,8.474-15.939,7.971h-16.7l-16.446,16.446H99.46V188h13.027l16.446-16.446h16.193l16.952-8.478,7.971-7.968h7.968l11.867-5.934V146Z" transform="translate(-99.46 -146)" fill="#407bff"/>
              </g>
            </g>
            <g id="Group_12443" data-name="Group 12443" transform="translate(0 26.977)">
              <g id="Group_12442" data-name="Group 12442">
                <g id="Group_12441" data-name="Group 12441">
                  <path id="Path_21733" data-name="Path 21733" d="M93.006,230.2a2.9,2.9,0,0,0-2.9,2.893c0,1.019,1.173,3.1,2.028,4.473.487.785.868,1.342.868,1.342s.384-.557.868-1.342c.855-1.374,2.028-3.454,2.028-4.473A2.9,2.9,0,0,0,93.006,230.2Zm0,4.322a1.32,1.32,0,1,1,1.32-1.32A1.318,1.318,0,0,1,93.006,234.522Z" transform="translate(-90.11 -230.2)" fill="#407bff"/>
                </g>
              </g>
            </g>
            <g id="Group_12449" data-name="Group 12449" opacity="0.5">
              <g id="Group_12445" data-name="Group 12445" transform="translate(2.996)">
                <g id="Group_12444" data-name="Group 12444">
                  <path id="Path_21734" data-name="Path 21734" d="M177.347,152.27h-8.478l-8.474,8.474-15.939,7.971h-16.7l-16.446,16.446H99.46V188h13.027l16.446-16.446h16.193l16.952-8.478,7.971-7.968h7.968l11.867-5.934V146Z" transform="translate(-99.46 -146)" fill="#fff"/>
                </g>
              </g>
              <g id="Group_12448" data-name="Group 12448" transform="translate(0 26.977)">
                <g id="Group_12447" data-name="Group 12447">
                  <g id="Group_12446" data-name="Group 12446">
                    <path id="Path_21735" data-name="Path 21735" d="M93.006,230.2a2.9,2.9,0,0,0-2.9,2.893c0,1.019,1.173,3.1,2.028,4.473.487.785.868,1.342.868,1.342s.384-.557.868-1.342c.855-1.374,2.028-3.454,2.028-4.473A2.9,2.9,0,0,0,93.006,230.2Zm0,4.322a1.32,1.32,0,1,1,1.32-1.32A1.318,1.318,0,0,1,93.006,234.522Z" transform="translate(-90.11 -230.2)" fill="#fff"/>
                  </g>
                </g>
              </g>
            </g>
          </g>
          <g id="Group_12455" data-name="Group 12455" transform="translate(89.732)">
            <g id="Group_12452" data-name="Group 12452">
              <g id="Group_12451" data-name="Group 12451">
                <path id="Path_21736" data-name="Path 21736" d="M373.868,103.51a3.686,3.686,0,0,0-3.688,3.684c0,1.3,1.493,3.944,2.582,5.693.618,1,1.109,1.711,1.109,1.711s.49-.708,1.1-1.711c1.086-1.749,2.582-4.4,2.582-5.693A3.69,3.69,0,0,0,373.868,103.51Zm0,5.5a1.679,1.679,0,1,1,1.679-1.679A1.676,1.676,0,0,1,373.868,109.011Z" transform="translate(-370.18 -103.51)" fill="#407bff"/>
              </g>
            </g>
            <g id="Group_12454" data-name="Group 12454" opacity="0.5">
              <g id="Group_12453" data-name="Group 12453">
                <path id="Path_21737" data-name="Path 21737" d="M373.868,103.51a3.686,3.686,0,0,0-3.688,3.684c0,1.3,1.493,3.944,2.582,5.693.618,1,1.109,1.711,1.109,1.711s.49-.708,1.1-1.711c1.086-1.749,2.582-4.4,2.582-5.693A3.69,3.69,0,0,0,373.868,103.51Zm0,5.5a1.679,1.679,0,1,1,1.679-1.679A1.676,1.676,0,0,1,373.868,109.011Z" transform="translate(-370.18 -103.51)" fill="#fff"/>
              </g>
            </g>
          </g>
        </g>
      </g>
      <g id="Distance" transform="translate(43.614 69.079)">
        <g id="Group_12459" data-name="Group 12459" transform="translate(0 0)">
          <g id="Group_12457" data-name="Group 12457">
            <path id="Path_21738" data-name="Path 21738" d="M145.853,102.395a.594.594,0,0,0-.788.112l-.795,1.182-3.806-2.307a.6.6,0,0,0-.753.135L138.4,103.2a.494.494,0,0,0,.07.734.594.594,0,0,0,.788-.112l.98-1.291.823.5L139.3,105.3l.016,0-3.076,3.941a.49.49,0,0,0,.106.727.538.538,0,0,0,.3.09.615.615,0,0,0,.481-.231l2.659-3.406h0l.077-.1a.549.549,0,0,1,.737-.173h0l.756.49-2.031,1.15a.527.527,0,0,0-.224.724.56.56,0,0,0,.759.167l2.794-1.583a.566.566,0,0,0,.292-.439.487.487,0,0,0-.221-.445l-.682-.442,1.083-1.493.913.554a.533.533,0,0,0,.285.08.607.607,0,0,0,.465-.215l1.125-1.573A.5.5,0,0,0,145.853,102.395Z" transform="translate(-136.129 -100.581)" fill="#407bff"/>
            <path id="Path_21739" data-name="Path 21739" d="M156.52,101.11a1.151,1.151,0,0,0,1.166-1.025.988.988,0,0,0-1.025-1.035,1.151,1.151,0,0,0-1.166,1.025A.986.986,0,0,0,156.52,101.11Z" transform="translate(-149.289 -99.05)" fill="#407bff"/>
          </g>
        </g>
      </g>
      <g id="Yime" transform="translate(86.39 62.524)">
        <g id="Group_12470" data-name="Group 12470" transform="translate(0 0)">
          <g id="Group_12469" data-name="Group 12469">
            <g id="Group_12468" data-name="Group 12468">
              <g id="Group_12462" data-name="Group 12462" transform="translate(4.186 5.016)">
                <g id="Group_12461" data-name="Group 12461">
                  <path id="Path_21750" data-name="Path 21750" d="M284.895,96.922a.257.257,0,0,1-.2-.09l-1.922-2.14a.268.268,0,1,1,.4-.359l1.922,2.14a.268.268,0,0,1-.019.378A.26.26,0,0,1,284.895,96.922Z" transform="translate(-282.705 -94.245)" fill="#407bff"/>
                </g>
              </g>
              <path id="Path_21751" data-name="Path 21751" d="M274.5,81.693V81.35h-1.1v.365a4.391,4.391,0,0,0,.628,8.737,4.392,4.392,0,0,0,.468-8.759Zm-.468,8.224a3.854,3.854,0,1,1,3.854-3.854A3.858,3.858,0,0,1,274.032,89.917Z" transform="translate(-269.639 -80.466)" fill="#407bff"/>
              <g id="Group_12463" data-name="Group 12463" transform="translate(3.582)">
                <rect id="Rectangle_5008" data-name="Rectangle 5008" width="1.461" height="0.743" fill="#407bff"/>
              </g>
              <g id="Group_12467" data-name="Group 12467" opacity="0.6">
                <g id="Group_12465" data-name="Group 12465" transform="translate(4.186 5.016)">
                  <g id="Group_12464" data-name="Group 12464">
                    <path id="Path_21752" data-name="Path 21752" d="M284.895,96.922a.257.257,0,0,1-.2-.09l-1.922-2.14a.268.268,0,1,1,.4-.359l1.922,2.14a.268.268,0,0,1-.019.378A.26.26,0,0,1,284.895,96.922Z" transform="translate(-282.705 -94.245)" fill="#407bff"/>
                  </g>
                </g>
                <path id="Path_21753" data-name="Path 21753" d="M274.5,81.693V81.35h-1.1v.365a4.391,4.391,0,0,0,.628,8.737,4.392,4.392,0,0,0,.468-8.759Zm-.468,8.224a3.854,3.854,0,1,1,3.854-3.854A3.858,3.858,0,0,1,274.032,89.917Z" transform="translate(-269.639 -80.466)" fill="#407bff"/>
                <g id="Group_12466" data-name="Group 12466" transform="translate(3.582)">
                  <rect id="Rectangle_5009" data-name="Rectangle 5009" width="1.461" height="0.743" fill="#407bff"/>
                </g>
              </g>
            </g>
          </g>
        </g>
      </g>
      <g id="Heart_rate" transform="translate(99.864 105.059)">
        <g id="Group_12475" data-name="Group 12475" transform="translate(0 0)">
          <g id="Group_12474" data-name="Group 12474">
            <g id="Group_12472" data-name="Group 12472" transform="translate(0 4.348)">
              <g id="Group_12471" data-name="Group 12471">
                <path id="Path_21754" data-name="Path 21754" d="M327.429,239.722h1.621a47.329,47.329,0,0,1-5.261,4.293l-1.285.942a.222.222,0,0,1-.029.019l-1.25-1.044a39.933,39.933,0,0,1-4.466-4.255h2.406l1.054-3.617,1.573,6.933,1.464-3.55.913,1.98,1.076-3.467,1.2,3.383Z" transform="translate(-315.137 -232.491)" fill="#407bff"/>
                <path id="Path_21755" data-name="Path 21755" d="M325.951,231.4h-2.175l-.682,1.125-1.31-3.7-1.121,3.614-.865-1.878-1.342,3.252-1.634-7.186-1.375,4.729h-2.429c-1.49-1.926-1.99-3.819-.064-5.5,2.409-2.108,5.2-.144,6.613,1.131,1.49-1.182,4.761-3.6,7.27-.455C328.1,228.105,327.338,229.826,325.951,231.4Z" transform="translate(-311.696 -224.921)" fill="#407bff"/>
              </g>
            </g>
          </g>
        </g>
      </g>
      <g id="Character" transform="translate(43.991 73.522)">
        <g id="Group_12525" data-name="Group 12525">
          <g id="Group_12523" data-name="Group 12523">
            <g id="Group_12522" data-name="Group 12522" transform="translate(0 2.526)">
              <g id="Group_12490" data-name="Group 12490" transform="translate(2.427 14.224)">
                <g id="Group_12478" data-name="Group 12478" transform="translate(10.038 7.882)">
                  <g id="Group_12476" data-name="Group 12476">
                    <rect id="Rectangle_5010" data-name="Rectangle 5010" width="2.32" height="0.24" fill="#407bff"/>
                  </g>
                  <g id="Group_12477" data-name="Group 12477" transform="translate(4.088)">
                    <rect id="Rectangle_5011" data-name="Rectangle 5011" width="5.982" height="0.24" fill="#407bff"/>
                  </g>
                </g>
                <g id="Group_12489" data-name="Group 12489">
                  <g id="Group_12482" data-name="Group 12482" transform="translate(0 52.582)">
                    <g id="Group_12479" data-name="Group 12479" transform="translate(10.826 0.003)">
                      <path id="Path_21759" data-name="Path 21759" d="M181.047,329.638c-.795,0-1.589,0-2.377,0v-.24c3.973.013,8.042-.006,12.085-.064l0,.24C187.519,329.615,184.261,329.638,181.047,329.638Z" transform="translate(-178.67 -329.33)" fill="#407bff"/>
                    </g>
                    <g id="Group_12480" data-name="Group 12480" transform="translate(3.684)">
                      <path id="Path_21760" data-name="Path 21760" d="M161.567,329.615c-1.708-.01-3.454-.029-5.187-.055l0-.24c1.733.026,3.479.042,5.184.055Z" transform="translate(-156.38 -329.32)" fill="#407bff"/>
                    </g>
                    <g id="Group_12481" data-name="Group 12481" transform="translate(0 0.003)">
                      <rect id="Rectangle_5012" data-name="Rectangle 5012" width="1.942" height="0.24" fill="#407bff"/>
                    </g>
                  </g>
                  <g id="Group_12485" data-name="Group 12485" transform="translate(14.36)">
                    <g id="Group_12483" data-name="Group 12483" transform="translate(2.307)">
                      <rect id="Rectangle_5013" data-name="Rectangle 5013" width="7.699" height="0.24" fill="#407bff"/>
                    </g>
                    <g id="Group_12484" data-name="Group 12484">
                      <rect id="Rectangle_5014" data-name="Rectangle 5014" width="0.993" height="0.24" fill="#407bff"/>
                    </g>
                  </g>
                  <g id="Group_12488" data-name="Group 12488" transform="translate(42.391 56.45)">
                    <g id="Group_12486" data-name="Group 12486" transform="translate(4.534)">
                      <rect id="Rectangle_5015" data-name="Rectangle 5015" width="5.54" height="0.24" fill="#407bff"/>
                    </g>
                    <g id="Group_12487" data-name="Group 12487">
                      <rect id="Rectangle_5016" data-name="Rectangle 5016" width="3.121" height="0.24" fill="#407bff"/>
                    </g>
                  </g>
                </g>
              </g>
              <g id="Group_12521" data-name="Group 12521">
                <g id="Group_12514" data-name="Group 12514">
                  <g id="Group_12495" data-name="Group 12495" transform="translate(16.784 14.855)">
                    <g id="Group_12494" data-name="Group 12494">
                      <g id="Group_12493" data-name="Group 12493">
                        <g id="Group_12492" data-name="Group 12492">
                          <g id="Group_12491" data-name="Group 12491" transform="translate(2.307)">
                            <path id="Path_21761" data-name="Path 21761" d="M215.873,172.429c-4.485.394-10.653,2.371-10.509,3.383l-6.453,8.032-2.022.75s4.232-10.474,5.334-12.194c.769-1.2,8.186-3.672,12.066-5.065a3.127,3.127,0,0,1,3.691,1.512S219.59,172.1,215.873,172.429Z" transform="translate(-196.89 -167.167)" fill="#e29471"/>
                          </g>
                          <path id="Path_21762" data-name="Path 21762" d="M194.018,217.609l-.147,1.749a2.093,2.093,0,0,1-.708,1.4l-1.567,1.374a.509.509,0,0,1-.66.006l-1.067-.9a.5.5,0,0,1-.1-.663l1.2-1.81,1.439-1.916C192.413,216.843,194.073,216.936,194.018,217.609Z" transform="translate(-189.69 -200.932)" fill="#e29471"/>
                        </g>
                      </g>
                    </g>
                  </g>
                  <g id="Group_12513" data-name="Group 12513">
                    <g id="Group_12508" data-name="Group 12508">
                      <g id="Group_12498" data-name="Group 12498" transform="translate(0 74.506)">
                        <path id="Path_21763" data-name="Path 21763" d="M157.893,356.74l-8.942,3.505c-.26-.224-1.781-3.233-1.781-3.233l7.93-3.662Z" transform="translate(-144.009 -353.35)" fill="#e29471"/>
                        <g id="Group_12496" data-name="Group 12496" transform="translate(0 3.045)">
                          <path id="Path_21764" data-name="Path 21764" d="M153.634,377.2a.105.105,0,0,1,.038-.106.1.1,0,0,1,.112,0c.058.038,1.4.942,1.535,1.628a.461.461,0,0,1-.064.372.357.357,0,0,1-.372.192c-.276-.035-.564-.452-.788-.919A6.312,6.312,0,0,1,153.634,377.2Zm1.445,1.394a4.265,4.265,0,0,0-1.166-1.169c.237.714.7,1.628,1.016,1.682.042,0,.1,0,.179-.115a.292.292,0,0,0,.038-.224,1.158,1.158,0,0,0-.064-.176Z" transform="translate(-148.4 -372.521)" fill="#407bff"/>
                          <path id="Path_21765" data-name="Path 21765" d="M153.69,376.657a.1.1,0,0,1,.074-.064,2.762,2.762,0,0,1,1.672-.128.7.7,0,0,1,.359.417.352.352,0,0,1-.083.439c-.372.272-1.583-.205-1.993-.545a.358.358,0,0,0-.029-.032Zm1.656-.01a2.231,2.231,0,0,0-1.349.074c.49.311,1.413.615,1.621.436.019-.016.074-.054.016-.215l-.038-.045A.512.512,0,0,0,155.346,376.647Z" transform="translate(-148.44 -372.039)" fill="#407bff"/>
                          <path id="Path_21766" data-name="Path 21766" d="M142.933,366.647l-.557-.484a2.863,2.863,0,0,1-.987-2.14l-.006-.961a.35.35,0,0,0-.394-.2l-3.274.58c-.324.08-.423.8-.407.836.734,2.284,2.675,7.042,3.377,8.583s2.323,1.048,2.172.352a9.965,9.965,0,0,1,.1-5.841A.984.984,0,0,0,142.933,366.647Z" transform="translate(-137.305 -362.855)" fill="#407bff"/>
                        </g>
                        <g id="Group_12497" data-name="Group 12497" transform="translate(8.316)" opacity="0.2">
                          <path id="Path_21767" data-name="Path 21767" d="M163.26,354.632l2.775-1.282,2.794,3.387-4.091,1.605-.663-.8a3.125,3.125,0,0,1-.7-1.695Z" transform="translate(-163.26 -353.35)"/>
                        </g>
                      </g>
                      <g id="Group_12499" data-name="Group 12499" transform="translate(9.617 39.618)">
                        <path id="Path_21768" data-name="Path 21768" d="M182.1,248.229a9.116,9.116,0,0,0-.612,2.031c-.718,3.678-1.717,16.141-2.368,20.883a2.8,2.8,0,0,1-1.708,2.131c-2.586,1.217-4.264,1.589-10.1,6.376a44.621,44.621,0,0,1,2.012,4.3s11.236-4.319,13.806-6.433c3.784-3.114,8.391-19.48,9.73-23.706.759-2.4,1.637-5.267.237-7.337C192.317,245.307,184.634,241.776,182.1,248.229Z" transform="translate(-167.32 -244.457)" fill="#263238"/>
                      </g>
                      <g id="Group_12501" data-name="Group 12501" transform="translate(21.615 13.924)">
                        <g id="Group_12500" data-name="Group 12500">
                          <path id="Path_21769" data-name="Path 21769" d="M222.142,166.043c.849.952,1.246,1.6.987,4.409-.5,5.447-.167,14.116-.359,15.456-.292,2.034-11.678,2.291-13.751.426l-4.13-16.663a3.992,3.992,0,0,1,3.29-4.908C209.114,164.617,219.562,163.149,222.142,166.043Z" transform="translate(-204.77 -164.262)" fill="#407bff"/>
                        </g>
                      </g>
                      <path id="Path_21770" data-name="Path 21770" d="M228.1,231.81h0a21.314,21.314,0,0,1,.224,5.581,12.765,12.765,0,0,0,2.666,8.965h0s-14.856-2.159-18.374-6.011l1.733-8.109A53.937,53.937,0,0,0,228.1,231.81Z" transform="translate(-188.49 -196.244)" fill="#263238"/>
                      <g id="Group_12503" data-name="Group 12503" transform="translate(27.435)">
                        <path id="Path_21771" data-name="Path 21771" d="M224.807,135.679l-.244-.2c-.006,0-.006,0-.006-.006a7.577,7.577,0,0,1-1.291-3.527c-.083-.413-.16-.859-.25-1.352a4.36,4.36,0,0,1,.458-2.944,25.874,25.874,0,0,1,.57,4.361A12.5,12.5,0,0,0,224.807,135.679Z" transform="translate(-222.935 -125.456)" fill="#263238"/>
                        <g id="Group_12502" data-name="Group 12502" transform="translate(0.003)">
                          <path id="Path_21772" data-name="Path 21772" d="M228,147.35c.179,1.637.3,3.934-.583,5.238a1.341,1.341,0,0,0-.042,1.5c.522.788,1.72,1.98,4.473,3.345A4.646,4.646,0,0,0,233.011,155,1.726,1.726,0,0,0,232,153.306c-1.326-.625-1.182-1.416-.772-2.656Z" transform="translate(-225.813 -138.845)" fill="#e29471"/>
                          <path id="Path_21773" data-name="Path 21773" d="M233.038,151.51l1.893,1.97a5.981,5.981,0,0,0-.256,1c-.769-.176-1.929-.948-2.025-1.82A2.548,2.548,0,0,1,233.038,151.51Z" transform="translate(-229.541 -141.672)" opacity="0.2"/>
                          <path id="Path_21774" data-name="Path 21774" d="M232.081,129.276a3.816,3.816,0,0,1-3.768,3.489h-.026a4.186,4.186,0,0,1-2.1-.551,4.714,4.714,0,0,1-.676-.455c-.087-.07-.173-.141-.25-.211a5.5,5.5,0,0,1-.686-.721c-.006,0-.006,0-.006-.006a7.577,7.577,0,0,1-1.291-3.527c-.083-.413-.16-.859-.25-1.352a4.361,4.361,0,0,1,.458-2.944,3.888,3.888,0,0,1,.25-.394,4.16,4.16,0,0,1,4.534-1.647,4.823,4.823,0,0,1,3.034,2.964c.064.141.119.285.173.429A11.531,11.531,0,0,1,232.081,129.276Z" transform="translate(-222.945 -120.803)" fill="#e29471"/>
                          <path id="Path_21775" data-name="Path 21775" d="M238.706,136.387c.035.253.192.442.352.423s.269-.247.24-.5-.192-.442-.352-.423S238.69,136.147,238.706,136.387Z" transform="translate(-233.655 -131.053)" fill="#263238"/>
                          <path id="Path_21776" data-name="Path 21776" d="M247.47,135.293c.032.256.192.442.352.423s.269-.247.24-.5-.192-.442-.352-.42S247.441,135.04,247.47,135.293Z" transform="translate(-239.609 -130.312)" fill="#263238"/>
                          <path id="Path_21777" data-name="Path 21777" d="M244.95,138.13a6.84,6.84,0,0,0,1.089,1.506,1.088,1.088,0,0,1-.868.282Z" transform="translate(-237.9 -132.579)" fill="#ea573f"/>
                          <path id="Path_21778" data-name="Path 21778" d="M234.658,133.362a.144.144,0,0,0,.144-.1,1.755,1.755,0,0,1,1.08-.9.152.152,0,0,0,.106-.186.144.144,0,0,0-.176-.106H235.8a2.007,2.007,0,0,0-1.282,1.093.15.15,0,0,0,.09.189h0A.1.1,0,0,0,234.658,133.362Z" transform="translate(-230.808 -128.458)" fill="#263238"/>
                          <path id="Path_21779" data-name="Path 21779" d="M246.741,130.76a.159.159,0,0,0,.135-.07.154.154,0,0,0-.048-.208,1.425,1.425,0,0,0-1.352-.147.145.145,0,0,0-.077.186s0,.006.006.01a.146.146,0,0,0,.192.074h0a1.16,1.16,0,0,1,1.057.131A.159.159,0,0,0,246.741,130.76Z" transform="translate(-238.198 -127.208)" fill="#263238"/>
                        </g>
                      </g>
                      <path id="Path_21780" data-name="Path 21780" d="M224.814,131.751c-.131.173-.554-.75-.766-.795a2.986,2.986,0,0,0-.772-.064c-.083-.413-.16-.859-.25-1.352a4.361,4.361,0,0,1,.458-2.944q-.029-.12-.067-.24h0a1.869,1.869,0,0,1,.311-.154,1.491,1.491,0,0,1,.775-.083,1.274,1.274,0,0,1,.875.747C224.3,128.89,225.221,131.22,224.814,131.751Z" transform="translate(-195.507 -124.403)" opacity="0.2"/>
                      <g id="Group_12504" data-name="Group 12504" transform="translate(26.148 1.435)">
                        <path id="Path_21781" data-name="Path 21781" d="M221.828,133.865a8.4,8.4,0,0,1-2.72-3.736,4.909,4.909,0,0,1,1.266-4.793c.1-.09.256-.051.378,0,.093.042-.176.154-.141.256.022.07.045.141.064.211s.048.16.067.24a4.558,4.558,0,0,0-.391.971,4.371,4.371,0,0,0-.067,1.974c.09.493.17.939.25,1.352A7.634,7.634,0,0,0,221.828,133.865Z" transform="translate(-218.918 -125.282)" fill="#263238"/>
                      </g>
                      <path id="Path_21782" data-name="Path 21782" d="M221.2,141.392a2.226,2.226,0,0,0,1.272,1.134c.74.244,1.144-.423.968-1.153-.163-.66-.743-1.58-1.5-1.519a1.019,1.019,0,0,0-.74,1.538Z" transform="translate(-194.219 -133.748)" fill="#e29471"/>
                      <g id="Group_12507" data-name="Group 12507" transform="translate(57.765 82.378)">
                        <path id="Path_21783" data-name="Path 21783" d="M321.656,377.92l.74,9.576c-.292.183-3.486,1.672-3.611.759-.388-2.791-1.185-8.654-1.185-8.654Z" transform="translate(-317.6 -377.92)" fill="#e29471"/>
                        <g id="Group_12505" data-name="Group 12505" transform="translate(0.349 7.557)">
                          <path id="Path_21784" data-name="Path 21784" d="M335.112,405.219a.1.1,0,0,1-.09-.067.1.1,0,0,1,.032-.106c.054-.045,1.31-1.064,2.006-.993a.473.473,0,0,1,.34.17.357.357,0,0,1,.074.41c-.112.253-.6.407-1.109.487A6.568,6.568,0,0,1,335.112,405.219Zm1.756-.974a4.3,4.3,0,0,0-1.461.772c.753-.019,1.762-.192,1.906-.477.016-.038.029-.1-.058-.205a.3.3,0,0,0-.205-.1.935.935,0,0,0-.189.01Z" transform="translate(-329.787 -403.234)" fill="#407bff"/>
                          <path id="Path_21785" data-name="Path 21785" d="M335.049,403.455a.089.089,0,0,1-.038-.09,2.743,2.743,0,0,1,.368-1.637.7.7,0,0,1,.506-.221.354.354,0,0,1,.4.208c.151.436-.66,1.451-1.105,1.746a.252.252,0,0,1-.038.016Zm.474-1.583a2.228,2.228,0,0,0-.324,1.314c.442-.378,1-1.173.891-1.423-.01-.022-.032-.087-.2-.077l-.054.026A.462.462,0,0,0,335.523,401.872Z" transform="translate(-329.778 -401.506)" fill="#407bff"/>
                          <path id="Path_21786" data-name="Path 21786" d="M323.28,405.7l-3.883.433a.348.348,0,0,0-.3.317l-.4,3.3c-.019.333.644.638.682.634,2.4-.035,7.516-.5,9.2-.721s1.679-1.913.974-1.974a9.992,9.992,0,0,1-5.559-1.8A.953.953,0,0,0,323.28,405.7Z" transform="translate(-318.689 -404.353)" fill="#407bff"/>
                        </g>
                        <g id="Group_12506" data-name="Group 12506" opacity="0.2">
                          <path id="Path_21787" data-name="Path 21787" d="M318,382.5l-.4-2.9,4.056-1.682.256,3.922Z" transform="translate(-317.6 -377.92)"/>
                        </g>
                      </g>
                      <path id="Path_21788" data-name="Path 21788" d="M239.427,247.027c2.034,3.6,11.944,11.992,16.721,19.166,1.307,1.961,4.453,15.465,7.484,19.291l4.8-.439c1.74-3.383-2.371-20.88-2.371-20.88-1.445-7.673-10.012-16.241-19.464-24.907a5.12,5.12,0,0,0-6.318-.477C239.847,239.034,237.453,243.535,239.427,247.027Z" transform="translate(-206.185 -200.396)" fill="#263238"/>
                    </g>
                    <g id="Group_12509" data-name="Group 12509" transform="translate(31.445 37.687)">
                      <path id="Path_21789" data-name="Path 21789" d="M239.39,241.749c-.375.086-.772-.151-1.06-.638a3.668,3.668,0,0,1-.5-1.682l-1.048,1.358a.917.917,0,0,1-.772.471.551.551,0,0,1-.394-.234,1.072,1.072,0,0,1-.144-.807,2,2,0,0,1,.888-1.246,2.019,2.019,0,0,1,1.49-.3l-.038-.138.3-.087.022.074.07-.09-.013.135a1.387,1.387,0,0,1,1.314.471,2.47,2.47,0,0,1,.516,1.48c.032.49-.115,1.109-.625,1.23C239.394,241.746,239.39,241.746,239.39,241.749Zm-1.23-2.845-.006.064a3.331,3.331,0,0,0,.445,1.983c.167.282.426.557.721.49.343-.083.4-.609.384-.907a2.156,2.156,0,0,0-.439-1.294,1.113,1.113,0,0,0-.9-.391l-.205.051S238.163,238.9,238.16,238.9Zm-1.051.08a1.785,1.785,0,0,0-.577.247,1.686,1.686,0,0,0-.75,1.048.762.762,0,0,0,.09.557.236.236,0,0,0,.173.106c.179.019.349-.167.49-.349l1.23-1.592-.061.016-.013-.058A1.556,1.556,0,0,0,237.109,238.984Z" transform="translate(-235.449 -238.43)" fill="#407bff"/>
                    </g>
                    <g id="Group_12510" data-name="Group 12510" transform="translate(31.4 38.186)">
                      <path id="Path_21790" data-name="Path 21790" d="M235.576,247.144l-.266-.167a14.535,14.535,0,0,0,2.185-6.988l.314.016A14.856,14.856,0,0,1,235.576,247.144Z" transform="translate(-235.31 -239.99)" fill="#407bff"/>
                    </g>
                    <g id="Group_12511" data-name="Group 12511" transform="translate(33.889 38.19)">
                      <path id="Path_21791" data-name="Path 21791" d="M247.078,247.09l-.311.038a10.909,10.909,0,0,0-3.688-6.888l.205-.24A11.237,11.237,0,0,1,247.078,247.09Z" transform="translate(-243.08 -240)" fill="#407bff"/>
                    </g>
                    <g id="Group_12512" data-name="Group 12512" transform="translate(10.02 36.062)">
                      <path id="Path_21792" data-name="Path 21792" d="M168.724,273.21l-.144-.279c3.534-1.845,12.7-7.058,12.7-9,0-4,3.915-30.306,3.954-30.568l.311.045c-.038.266-3.95,26.548-3.95,30.524C181.6,266.463,169.25,272.938,168.724,273.21Z" transform="translate(-168.58 -233.36)" fill="#fff"/>
                    </g>
                  </g>
                </g>
                <g id="Group_12520" data-name="Group 12520" transform="translate(22.073 15.477)">
                  <g id="Group_12518" data-name="Group 12518">
                    <g id="Group_12517" data-name="Group 12517">
                      <g id="Group_12516" data-name="Group 12516">
                        <g id="Group_12515" data-name="Group 12515">
                          <path id="Path_21793" data-name="Path 21793" d="M206.638,170.248c.42-1.269,3.073-1.528,3.909-.513,3.6,4.373,7.606,8.439,7.606,8.439l10.044-2.079,1.631,1.413s-10.371,5.194-12.415,5.2c-2.191,0-7.472-5.091-10.243-8.144A3.842,3.842,0,0,1,206.638,170.248Z" transform="translate(-206.198 -169.11)" fill="#e29471"/>
                        </g>
                        <path id="Path_21794" data-name="Path 21794" d="M274.33,189.027l1.6-.711a2.1,2.1,0,0,1,1.57-.054l1.958.714a.5.5,0,0,1,.32.577l-.279,1.368a.508.508,0,0,1-.535.4l-2.163-.176-2.374-.34C274.429,190.8,273.715,189.3,274.33,189.027Z" transform="translate(-252.331 -182.04)" fill="#e29471"/>
                      </g>
                    </g>
                  </g>
                  <g id="Group_12519" data-name="Group 12519" transform="translate(20.501 6.397)">
                    <path id="Path_21795" data-name="Path 21795" d="M273.761,192.673l-.708.509-1.243-2.637.775-.365Z" transform="translate(-271.29 -189.827)" fill="#263238"/>
                    <path id="Path_21796" data-name="Path 21796" d="M272.056,189.478l-1.737.817-.1-.218a.317.317,0,0,1,.151-.42l1.166-.551a.317.317,0,0,1,.42.151Z" transform="translate(-270.187 -189.077)" fill="#263238"/>
                  </g>
                </g>
              </g>
            </g>
            <path id="Path_21797" data-name="Path 21797" d="M215.382,120.313a4.166,4.166,0,0,1,2.711-2.483c1.192-.439,2.477-.58,3.688-.961.8-.253,1.688-.763,1.769-1.6a1.655,1.655,0,0,0-.634-1.355,5,5,0,0,0-1.362-.737,2.2,2.2,0,0,0-1.147-.243.765.765,0,0,0-.686.811,3.238,3.238,0,0,0-3.511.266,1.638,1.638,0,0,0-.583,2.121,1.527,1.527,0,0,0-1.781.577,1.283,1.283,0,0,0,.381,1.653,1.328,1.328,0,0,0-1.31,1.679C213.229,120.822,215.141,121.123,215.382,120.313Z" transform="translate(-188.64 -112.917)" fill="#263238"/>
          </g>
          <g id="Group_12524" data-name="Group 12524" transform="translate(31.791 10.138)">
            <path id="Path_21798" data-name="Path 21798" d="M239.506,145.2a11.026,11.026,0,0,0-.41,1.547c-.093,0-.189,0-.282-.006-1.278-.045-1.855-.49-2.108-.968a1.68,1.68,0,0,1-.176-.759,1.549,1.549,0,0,1,.054-.442,6.007,6.007,0,0,0,2.486.609C239.336,145.2,239.506,145.2,239.506,145.2Z" transform="translate(-236.53 -144.567)" fill="#263238"/>
            <path id="Path_21799" data-name="Path 21799" d="M239.077,145.169l-.131.452A3.811,3.811,0,0,1,236.54,145a1.548,1.548,0,0,1,.054-.442A5.97,5.97,0,0,0,239.077,145.169Z" transform="translate(-236.536 -144.56)" fill="#fff"/>
            <path id="Path_21800" data-name="Path 21800" d="M239.178,149.288c-1.278-.045-1.855-.49-2.108-.968a4.1,4.1,0,0,1,1.406.333A1.511,1.511,0,0,1,239.178,149.288Z" transform="translate(-236.897 -147.115)" fill="#de5753"/>
          </g>
        </g>
      </g>
    </g>
    <text id="Set_your_goals_Achieve_your_Target" data-name="Set your
goals &amp; Achieve 
your Target" transform="translate(-3852 -17497)" fill="#272727" font-size="16" font-family="Jost-Medium, Jost" font-weight="500"><tspan x="0" y="0">SET YOUR</tspan><tspan x="0" y="20">GOALS &amp; ACHIEVE </tspan><tspan x="0" y="40">YOUR TARGET</tspan></text>
  </g>
</svg>
