<svg xmlns="http://www.w3.org/2000/svg" width="15.5" height="15.252" viewBox="0 0 15.5 15.252">
  <g id="wallet_1_" data-name="wallet (1)" transform="translate(-0.5 -0.5)">
    <path id="Path_17918" data-name="Path 17918" d="M14.967,7.582V5.935a1.552,1.552,0,0,0-1.55-1.55H12.9V2.3A1.549,1.549,0,0,0,10.776.857l-2.4.958A4.641,4.641,0,0,0,.5,5.15a4.532,4.532,0,0,0,.049.486,1.164,1.164,0,0,0-.049.3V14.2a1.552,1.552,0,0,0,1.55,1.55H13.417a1.552,1.552,0,0,0,1.55-1.55V12.559A1.548,1.548,0,0,0,16,11.1V9.038A1.548,1.548,0,0,0,14.967,7.582Zm-3.81-5.765a.516.516,0,0,1,.71.481V4.385H9.723a4.607,4.607,0,0,0-.662-1.731ZM5.15,1.533A3.617,3.617,0,1,1,1.533,5.15,3.617,3.617,0,0,1,5.15,1.533Zm8.267,13.185H2.05a.517.517,0,0,1-.517-.517l.006-6.158A4.616,4.616,0,0,0,9.773,5.419h3.644a.517.517,0,0,1,.517.517V7.487h-1.55a1.552,1.552,0,0,0-1.55,1.55V11.1a1.552,1.552,0,0,0,1.55,1.55h1.55V14.2A.517.517,0,0,1,13.417,14.719Zm1.55-3.615a.517.517,0,0,1-.512.516h0l-.01,0H12.383a.517.517,0,0,1-.517-.517V9.037a.517.517,0,0,1,.517-.517H14.45a.517.517,0,0,1,.517.517Z" transform="translate(0 0)" fill="#2e2e2e"/>
    <path id="Path_17919" data-name="Path 17919" d="M3.517,5.583H4.55V6.617a.517.517,0,0,0,1.033,0V5.583H6.617a.517.517,0,0,0,0-1.033H5.583V3.517a.517.517,0,0,0-1.033,0V4.55H3.517a.517.517,0,0,0,0,1.033Z" transform="translate(0.083 0.083)" fill="#2e2e2e"/>
  </g>
</svg>
